<?xml version="1.0" standalone="no"?>
<svg viewBox="0 0 200 200" xmlns="http://www.w3.org/2000/svg">
  <path fill="#F1C21B" d="M29.6,-45.6C42.3,-43.9,59.2,-44,70.6,-36.6C81.9,-29.3,87.7,-14.7,86.5,-0.7C85.3,13.3,77.1,26.5,66,34.4C55,42.2,41.1,44.6,29.6,47C18.1,49.3,9.1,51.6,-0.5,52.5C-10.1,53.4,-20.2,53,-31.7,50.6C-43.2,48.3,-56.1,44.1,-62.8,35.3C-69.5,26.6,-70,13.3,-69.1,0.5C-68.2,-12.2,-65.9,-24.5,-57.8,-30.8C-49.7,-37.1,-35.8,-37.5,-25.2,-40.4C-14.6,-43.2,-7.3,-48.5,0.6,-49.5C8.5,-50.5,16.9,-47.2,29.6,-45.6Z" transform="translate(100 100)" />
</svg>
