<?xml version="1.0" standalone="no"?>
<svg viewBox="0 0 200 200" xmlns="http://www.w3.org/2000/svg">
  <path fill="#F2F4F8" d="M32.9,-55.9C41.1,-52.3,45.1,-40.3,48.3,-29.6C51.4,-18.9,53.6,-9.5,59.3,3.2C64.9,15.9,73.9,31.9,70.1,41.5C66.3,51,49.7,54.3,35.9,59.3C22.1,64.2,11.1,71,-1.1,72.8C-13.2,74.7,-26.4,71.6,-33.6,62.8C-40.8,54,-42.1,39.5,-50.8,28.1C-59.5,16.7,-75.6,8.4,-76.8,-0.7C-78,-9.8,-64.5,-19.6,-52.4,-25.2C-40.4,-30.9,-30,-32.4,-21.5,-35.8C-13,-39.3,-6.5,-44.6,2.9,-49.7C12.4,-54.7,24.7,-59.5,32.9,-55.9Z" transform="translate(100 100)" />
</svg>
