<?xml version="1.0" standalone="no"?>
<svg viewBox="0 0 200 200" xmlns="http://www.w3.org/2000/svg">
  <path fill="#F2F4F8" d="M34,-68.2C39.7,-55.5,37.2,-37.8,40.5,-25.5C43.8,-13.3,53,-6.7,59.1,3.5C65.1,13.6,67.9,27.2,61.6,34.3C55.3,41.3,39.9,41.8,28.1,45.8C16.3,49.7,8.1,57.1,-2,60.6C-12.2,64.2,-24.4,63.8,-33.5,58.3C-42.5,52.8,-48.4,42.1,-55.2,31.5C-61.9,20.9,-69.6,10.4,-70.1,-0.3C-70.6,-11,-63.9,-22.1,-56.6,-31.6C-49.3,-41.2,-41.2,-49.3,-31.7,-59.8C-22.1,-70.2,-11.1,-83,1.5,-85.7C14.1,-88.3,28.2,-80.8,34,-68.2Z" transform="translate(100 100)" />
</svg>
