<?xml version="1.0" standalone="no"?>
<svg viewBox="0 0 200 200" xmlns="http://www.w3.org/2000/svg">
  <path fill="#F1C21B" d="M27.6,-50.3C35.5,-43.3,41.3,-35.3,51.8,-26.7C62.3,-18.1,77.5,-9.1,82,2.6C86.5,14.3,80.3,28.5,68.2,34.3C56,40,38,37.3,25.7,37.3C13.3,37.2,6.7,39.8,-4.7,48C-16.1,56.1,-32.1,69.8,-44.2,69.7C-56.3,69.6,-64.3,55.7,-63.1,41.8C-61.8,27.9,-51.2,13.9,-47.1,2.4C-42.9,-9.1,-45.2,-18.3,-43.2,-26.6C-41.3,-34.9,-35,-42.4,-27.1,-49.4C-19.2,-56.3,-9.6,-62.7,0.1,-62.9C9.9,-63.2,19.8,-57.3,27.6,-50.3Z" transform="translate(100 100)" />
</svg>
