<?xml version="1.0" standalone="no"?>
<svg viewBox="0 0 200 200" xmlns="http://www.w3.org/2000/svg">
  <path fill="#0F62FE" d="M40.9,-66.4C55.2,-62.6,70.7,-56.1,80.3,-44.6C89.9,-33.1,93.7,-16.6,90,-2.1C86.3,12.3,75.1,24.6,66.1,37.2C57.2,49.9,50.5,62.9,39.8,72.9C29.2,82.9,14.6,89.9,1.6,87.1C-11.4,84.3,-22.7,71.6,-36.7,63.5C-50.6,55.5,-67.2,51.9,-73.9,42.1C-80.5,32.3,-77.1,16.1,-69.7,4.2C-62.4,-7.6,-51.1,-15.3,-46.5,-28.7C-41.9,-42.1,-44.1,-61.2,-37.5,-69.5C-30.9,-77.8,-15.5,-75.4,-1.1,-73.5C13.3,-71.6,26.6,-70.3,40.9,-66.4Z" transform="translate(100 100)" />
</svg>
